<svg width="46" height="46" viewBox="0 0 46 46" fill="none" xmlns="http://www.w3.org/2000/svg">
<circle cx="23" cy="23" r="22.25" stroke="black" stroke-width="1.5"/>
<path d="M25.523 19.492L18.2255 20.2813L18 21.3263L20.2375 21.5545C21.046 21.747 21.2055 22.0385 21.0295 22.8443L19 32.3813C18.4665 34.848 19.2888 36.0085 21.222 36.0085C22.7208 36.0085 25.4615 34.3155 26.2508 33.364L26.4927 32.22C25.9427 32.704 24.1397 33.8965 23.6062 33.8965C22.85 33.8965 22.575 33.3658 22.7702 32.4308L25.523 19.492ZM25.7155 13.75C25.7155 14.4794 25.4258 15.1788 24.91 15.6946C24.3943 16.2103 23.6948 16.5 22.9655 16.5C22.2362 16.5 21.5367 16.2103 21.021 15.6946C20.5052 15.1788 20.2155 14.4794 20.2155 13.75C20.2155 13.0207 20.5052 12.3212 21.021 11.8055C21.5367 11.2897 22.2362 11 22.9655 11C23.6948 11 24.3943 11.2897 24.91 11.8055C25.4258 12.3212 25.7155 13.0207 25.7155 13.75Z" fill="black"/>
</svg>
