<svg width="37" height="48" viewBox="0 0 37 48" fill="none" xmlns="http://www.w3.org/2000/svg">
    <path
        d="M15.3203 0.118008C14.7504 0.257915 14.2903 0.505932 13.8714 0.900217C13.48 1.26906 13.3289 1.52344 12.8208 2.66178C12.1615 4.13081 11.1727 6.20399 9.85422 8.86223C9.5246 9.52361 9.18126 10.2232 9.09199 10.4076C8.85851 10.8845 6.67481 15.209 6.24906 16.0484C4.87566 18.7321 4.09283 21.3394 3.77008 24.2521C3.67394 25.136 3.67394 27.6734 3.77008 28.5065C4.09969 31.3238 4.34004 33.4923 4.37437 33.9311C4.45241 35.0694 4.48886 34.3942 4.2645 35.0695C4.15463 35.4256 3.72888 36.1315 2.32115 38.281C-0.219634 42.1857 -0.0204914 41.855 0.0207104 42.192C0.103114 42.8852 1.07136 43.2096 1.55891 42.7135C1.63445 42.6308 2.11514 41.9249 2.62329 41.1364C3.13145 40.3478 4.00356 39.0187 4.54605 38.1792C5.6997 36.4177 5.83704 36.1697 6.02931 35.5909C6.23532 34.9804 6.28339 34.3318 6.18039 33.4605C6.12603 32.9873 6.0723 32.5599 6.01558 32.1187C5.99498 31.9534 5.97438 31.7626 5.97438 31.6926C5.97438 31.6227 5.89884 30.9231 5.8027 30.1346C5.54863 27.9723 5.47309 26.7768 5.52116 25.6829C5.54863 25.1424 5.58296 24.57 5.60356 24.4111C5.6895 23.8142 5.71733 23.0012 6.23532 21.0533C6.67481 19.3998 7.0937 18.3887 8.37782 15.8576C11.104 10.4902 13.4525 5.68252 14.5718 3.20234C15.0182 2.2039 15.1075 2.08308 15.5263 1.87321C15.8903 1.68879 15.8628 1.68879 16.8448 1.78418C16.9737 1.79745 17.0344 1.96664 17.1332 2.03856C17.3736 2.21026 17.5796 2.60455 17.5796 2.88436C17.5796 3.01155 17.2225 4.30252 16.783 5.76519C16.3435 7.2215 15.9109 8.65873 15.8216 8.95762C14.9495 11.9211 14.3315 13.8925 14.2628 13.9371C14.2147 13.9625 14.1186 14.0197 14.0431 14.0579C13.4113 14.3886 12.5873 15.3298 12.086 16.2964C11.1795 18.0516 10.7195 20.2075 10.5684 23.4571C10.486 25.2823 10.5203 25.9882 10.7263 26.2235C11.0147 26.5669 11.4336 26.6559 11.8594 26.4652C12.3126 26.268 12.3607 26.109 12.3607 24.8753C12.3607 20.9642 13.013 17.9308 14.1873 16.3219C14.401 16.0352 14.8211 15.3399 15.3272 15.5015C16.2954 15.8131 16.8791 16.5572 16.9409 17.5619C16.9684 18.0007 16.9135 18.4268 16.5564 20.3092C16.1979 22.241 15.5538 24.2576 15.5538 26.2235C15.5607 27.152 15.5744 27.2855 15.7461 27.7561C15.8491 28.0359 16.2199 28.7927 16.5701 29.4414C17.3255 30.8087 17.4216 31.0503 17.504 31.8325C17.6559 33.1688 17.6502 33.7441 17.5178 35.0377C17.0851 39.2603 15.2379 43.0824 12.2302 45.9823C11.825 46.3766 11.4542 46.7645 11.413 46.8408C11.2139 47.1842 11.4268 47.7438 11.8113 47.9219C12.0379 48.03 12.4637 48.0236 12.6903 47.9155C13.0611 47.7375 14.51 46.2621 15.2585 45.3018C16.5523 43.6377 17.7828 41.5454 18.4105 39.5592L18.4997 39.2858L18.7813 40.0362C19.6603 42.3256 20.807 44.2461 22.4139 46.0967C22.9701 46.7327 24.0895 47.8074 24.3229 47.9155C24.5495 48.0236 24.9753 48.03 25.2019 47.9219C25.5865 47.7438 25.7993 47.1842 25.6071 46.8408C25.4835 46.6119 24.9822 46.1603 24.8998 46.2048C24.8586 46.2239 24.8448 46.2239 24.8723 46.1921C24.8998 46.1667 24.7212 45.9378 24.474 45.6897C23.5195 44.7358 22.4483 43.3113 21.6998 42.0076C19.9761 39.006 19.159 35.2666 19.5023 31.9088C19.5916 31.0503 19.6946 30.7832 20.4568 29.4096C20.8002 28.7927 21.1641 28.0487 21.2671 27.7625C21.4457 27.2728 21.4594 27.1774 21.4525 26.1599C21.4457 25.117 21.4319 25.0152 21.0955 23.4889C20.9032 22.6113 20.5873 21.0406 20.3882 19.9912C20.0997 18.4141 20.0448 17.9944 20.0723 17.5619C20.1272 16.6653 20.5736 16.0039 21.3701 15.635C21.6036 15.5333 21.8302 15.4443 21.8783 15.4443C22.0431 15.4443 22.7023 16.1056 22.9976 16.5699C23.7667 17.7718 24.2611 19.5016 24.5152 21.9309C24.5564 22.2997 24.6114 23.3618 24.632 24.2966C24.6663 25.8038 24.6869 26.02 24.8036 26.1917C25.0371 26.5542 25.6071 26.675 26.0053 26.4461C26.4174 26.2171 26.4586 26.0899 26.4654 25.0915C26.4998 20.4428 25.7101 17.0278 24.1787 15.1454C23.8079 14.6875 23.2998 14.2296 22.9701 14.0579C22.8946 14.0197 22.7985 13.9625 22.7504 13.9371C22.6817 13.8925 22.1873 12.309 21.0474 8.48067C20.9238 8.06094 20.5049 6.68095 20.1272 5.41542C19.7427 4.14989 19.4337 3.01155 19.4337 2.88436C19.4337 2.25478 20.086 1.70787 20.8482 1.70787C21.2465 1.70787 21.789 1.9686 21.9676 2.24206C22.0362 2.35017 22.3452 2.99247 22.6543 3.66657C23.4783 5.47901 26.2045 11.0817 27.0217 12.6588C27.4773 13.5263 27.928 14.4659 28.3951 15.3807C29.583 17.7273 29.9401 18.5031 30.3109 19.5397C30.7985 20.8879 31.2105 22.6622 31.3891 24.1567C31.5401 25.4222 31.4989 27.7688 31.2861 29.5113C30.6955 34.4208 30.6818 34.6943 30.977 35.5782C31.1762 36.1697 31.3135 36.4113 32.4466 38.1474C32.9822 38.9678 33.8474 40.2969 34.3693 41.1046C34.8912 41.9059 35.3788 42.6308 35.4543 42.7135C35.6466 42.9043 36.0243 42.9933 36.3333 42.917C36.917 42.7644 37.1779 42.1602 36.8689 41.6515C36.7865 41.5052 36.6835 41.3908 36.6423 41.3908C36.608 41.3908 36.6011 41.3717 36.6217 41.3462C36.6492 41.3272 36.6217 41.2318 36.5599 41.1491C36.4981 41.0601 35.6466 39.7627 34.6715 38.2619C32.7899 35.3747 32.6182 35.0377 32.6182 34.3318C32.6182 34.1346 32.68 33.4415 32.7556 32.7992C32.8243 32.1569 32.9685 30.9104 33.0646 30.0392C33.1607 29.1616 33.2569 28.3221 33.2775 28.1631C33.3461 27.6607 33.3187 24.977 33.2431 24.2521C32.9204 21.3267 32.1376 18.7321 30.7504 16.0166C30.5444 15.616 30.0088 14.5603 29.5624 13.6763C29.0087 12.5811 28.4868 11.5148 27.9556 10.4712C26.3899 7.33597 24.8036 4.04814 24.1032 2.471C23.9109 2.0322 23.6774 1.5616 23.5882 1.42169C22.9633 0.44234 21.5487 -0.155449 20.3126 0.0416936C20.058 0.0831123 18.5558 0.939401 18.3693 0.766671C18.1083 0.512293 17.4285 0.187962 16.9615 0.0925709C16.3504 -0.0409773 15.9452 -0.0282594 15.3203 0.118008ZM19.3306 9.11661C19.7701 10.5856 20.2508 12.2009 20.4019 12.7097C20.553 13.2184 20.704 13.7081 20.7384 13.8035C20.7933 13.9689 20.7796 13.9879 20.3744 14.1851C19.7976 14.4649 19.0422 15.1708 18.747 15.7113L18.5066 16.1374L18.2731 15.7113C17.971 15.1708 17.2156 14.4713 16.6388 14.1851C16.3641 14.0515 16.2268 13.9498 16.2474 13.8925C16.4521 13.387 16.9615 11.5734 16.9615 11.5332C16.9615 11.5205 17.2362 10.5984 17.5727 9.48546C17.9092 8.37256 18.2525 7.22786 18.3349 6.93532C18.4173 6.64279 18.4997 6.41385 18.5066 6.42657C18.5203 6.43929 18.8843 7.64758 19.3306 9.11661ZM18.8706 21.1805C18.9461 21.1614 18.9461 21.1805 18.8774 21.2822C18.8019 21.3903 18.8225 21.5747 18.9804 22.3888C19.0834 22.923 19.262 23.7497 19.3787 24.2203C19.6465 25.3268 19.7152 26.6114 19.5435 27.1583C19.4199 27.5526 18.6096 29.0662 18.5135 29.0789C18.4242 29.0916 17.6002 27.5717 17.4697 27.1583C17.3186 26.6814 17.3736 25.2441 17.5727 24.5065C17.9136 23.2173 18.1379 21.8798 18.3761 20.5763L18.4997 19.8641L18.6439 20.5382C18.747 21.0342 18.8088 21.2059 18.8706 21.1805Z"
        fill="#404040" />
</svg>
