<svg width="54" height="43" viewBox="0 0 54 43" fill="none" xmlns="http://www.w3.org/2000/svg">
<path d="M27.5 41V9.50002C29.6667 6.83335 36.3 1.40002 45.5 1.00002C45.5 3.0355 45.5 5.64244 45.5 8.50002C45.5 8.75193 45.5 7.00002 45.5 7.50002M27.5 41C33.5 34.2 42 31.5 45.5 31C45.5 26.1582 45.5 15.1703 45.5 7.50002M27.5 41C35.1 36.6 47.3333 36.8333 52.5 37.5V8.50002C51 7.50002 47.5 7.50002 45.5 7.50002" stroke="black" stroke-width="1.5"/>
<path d="M27 41V9.50002C24.7467 6.83335 17.848 1.40002 8.28 1.00002C8.28 3.0355 8.28 5.64244 8.28 8.50002C8.28 8.75193 8.28 7.00002 8.28 7.50002M27 41C20.76 34.2 11.92 31.5 8.28 31C8.28 26.1582 8.28 15.1703 8.28 7.50002M27 41C19.096 36.6 6.37333 36.8333 1 37.5V8.50002C2.56 7.50002 6.2 7.50002 8.28 7.50002" stroke="black" stroke-width="1.5"/>
</svg>
