<svg width="47" height="48" viewBox="0 0 47 48" fill="none" xmlns="http://www.w3.org/2000/svg">
<path d="M38 15.4998H8M25 23.9998H33L27 36.4998M1 9.49982V41.9998C1 43.6665 1.8 46.9998 5 46.9998C8.2 46.9998 30 46.9998 40.5 46.9998C42.1667 46.9998 45.5 45.9998 45.5 41.9998C45.5 37.9998 45.5 18.6665 45.5 9.49982C45.5 7.99982 44.5 4.99982 40.5 4.99982C36.5 4.99982 14.5 4.99982 4 4.99982C3 5.33315 1 6.69982 1 9.49982ZM17 23.4998C15.6667 23.4998 13 24.7998 13 29.9998C13 35.1998 15.6667 36.4998 17 36.4998C18.5 36.4998 21.5 35.1998 21.5 29.9998C21.5 24.7998 18.5 23.4998 17 23.4998Z" stroke="black" stroke-width="1.5"/>
<path d="M36 0.5V9.49982" stroke="black" stroke-width="2"/>
<path d="M10 0.5V9.49982" stroke="black" stroke-width="2"/>
</svg>
