<svg width="24" height="24" viewBox="0 0 24 24" fill="none" xmlns="http://www.w3.org/2000/svg">
<g clip-path="url(#clip0_337_20)">
<path d="M17.8443 0H7.74652C6.78012 0 6 0.783616 6 1.74827V22.2535C6 23.2173 6.78012 24 7.74652 24H17.8443C18.809 24 19.5908 23.2173 19.5908 22.2535V1.74827C19.5908 0.783616 18.809 0 17.8443 0ZM10.3038 1.06173H15.2888C15.4148 1.06173 15.5171 1.24976 15.5171 1.4824C15.5171 1.71504 15.4148 1.90394 15.2888 1.90394H10.3038C10.177 1.90394 10.0764 1.71504 10.0764 1.4824C10.0764 1.24976 10.177 1.06173 10.3038 1.06173ZM12.7963 22.2745C12.1815 22.2745 11.6812 21.7742 11.6812 21.1585C11.6812 20.5428 12.1815 20.0443 12.7963 20.0443C13.4094 20.0443 13.9096 20.5428 13.9096 21.1585C13.9096 21.7742 13.4094 22.2745 12.7963 22.2745ZM18.5908 19H7V2.94993H18.5908V19Z" fill="black"/>
</g>
<defs>
<clipPath id="clip0_337_20">
<rect width="24" height="24" fill="white"/>
</clipPath>
</defs>
</svg>
