<?xml version="1.0" standalone="no"?>
<!DOCTYPE svg PUBLIC "-//W3C//DTD SVG 20010904//EN"
 "http://www.w3.org/TR/2001/REC-SVG-20010904/DTD/svg10.dtd">
<svg version="1.0" xmlns="http://www.w3.org/2000/svg"
 width="512.000000pt" height="512.000000pt" viewBox="0 0 512.000000 512.000000"
 preserveAspectRatio="xMidYMid meet">

<g transform="translate(0.000000,512.000000) scale(0.100000,-0.100000)"
fill="#000000" stroke="none">
<path d="M2422 5060 c-615 -87 -1072 -609 -1072 -1224 0 -411 201 -795 533
-1021 79 -53 86 -61 71 -72 -10 -7 -28 -13 -40 -13 -12 0 -74 -9 -139 -20
-369 -63 -537 -171 -629 -402 -24 -61 -195 -746 -211 -843 -3 -23 -2 -69 4
-104 28 -173 134 -285 341 -362 l65 -24 -225 -6 c-134 -4 -241 -11 -265 -19
-122 -38 -220 -121 -276 -235 -34 -69 -34 -71 -34 -205 l0 -136 38 -76 c40
-82 116 -162 188 -199 98 -49 89 -49 1074 -49 1013 0 965 -3 965 59 0 56 2 56
-442 61 l-410 5 89 38 c125 53 282 142 464 263 318 211 597 329 861 364 52 7
224 10 463 8 l380 -3 55 -26 c74 -35 120 -76 155 -141 25 -46 30 -66 33 -150
3 -72 0 -109 -13 -147 -22 -67 -91 -143 -163 -178 l-57 -28 -553 -5 c-533 -5
-554 -6 -568 -24 -19 -27 -18 -52 6 -76 19 -19 33 -20 553 -20 566 0 593 2
686 49 72 37 148 117 188 199 l38 76 0 136 c0 134 0 136 -34 205 -56 114 -154
197 -276 235 -24 8 -131 15 -265 19 l-225 6 65 24 c151 56 241 124 294 221 35
63 59 181 51 240 -8 56 -170 726 -191 795 -86 268 -271 394 -669 456 -71 11
-136 22 -144 25 -8 3 10 19 45 40 90 54 162 111 240 190 319 323 434 810 294
1246 -61 190 -157 345 -305 493 -180 180 -379 288 -625 341 -89 18 -319 27
-408 14z m293 -121 c378 -46 706 -280 873 -622 220 -450 102 -1014 -278 -1333
-64 -54 -232 -164 -250 -164 -12 0 -85 100 -114 153 l-25 49 63 63 63 63 64
-5 c53 -3 70 -1 97 16 33 21 72 75 72 100 0 7 25 63 55 125 68 138 79 201 45
270 -12 25 -34 53 -48 62 -27 15 -27 17 -28 132 -1 226 -75 370 -262 507 l-82
60 -25 81 c-56 182 -171 262 -364 252 -180 -9 -285 -97 -321 -271 -11 -55 -15
-60 -94 -126 -197 -164 -256 -283 -256 -511 0 -111 0 -111 -29 -136 -70 -58
-67 -159 8 -309 27 -55 57 -118 66 -140 9 -21 23 -48 33 -59 26 -29 92 -55
142 -57 40 -1 49 -6 85 -46 l39 -45 -28 -53 c-15 -30 -51 -79 -79 -110 l-52
-56 -80 50 c-325 202 -515 525 -532 902 -11 247 48 465 181 667 103 155 247
284 416 371 139 71 230 99 410 125 54 7 149 5 235 -5z m-10 -328 c59 -26 91
-71 120 -164 29 -96 44 -115 148 -192 117 -86 177 -174 203 -293 18 -90 18
-165 -3 -210 l-17 -37 -7 90 c-4 50 -12 108 -19 130 -20 68 -72 130 -135 160
-75 37 -145 32 -250 -19 -105 -51 -158 -50 -277 5 -83 38 -94 41 -161 37 -62
-3 -79 -8 -120 -37 -86 -59 -137 -167 -137 -289 0 -58 -2 -63 -16 -51 -13 11
-15 32 -12 129 3 105 6 121 35 183 36 75 111 160 196 222 71 51 93 84 112 170
22 94 45 128 107 159 65 33 171 36 233 7z m-269 -648 c75 -36 84 -38 179 -38
95 0 103 2 175 38 41 20 88 37 103 37 42 0 82 -25 109 -67 22 -36 23 -49 26
-231 2 -106 -1 -230 -7 -275 -28 -205 -160 -345 -359 -379 -219 -37 -440 119
-482 342 -13 70 -13 445 1 493 6 21 28 56 50 78 53 53 97 53 205 2z m-386
-458 c0 -73 17 -181 36 -230 7 -18 6 -18 -9 -7 -9 8 -21 28 -27 46 -5 17 -33
76 -60 129 -74 144 -65 210 21 163 l39 -21 0 -80z m1215 108 c25 -24 13 -81
-38 -177 -23 -44 -49 -100 -57 -125 -11 -34 -21 -47 -37 -49 -27 -4 -27 -2 -8
60 7 26 17 96 21 155 l7 108 41 22 c51 27 51 27 71 6z m-830 -666 c77 -27 246
-29 314 -3 62 23 68 21 92 -26 12 -24 37 -64 55 -90 l34 -48 -26 -82 c-66
-207 -194 -385 -357 -497 -72 -49 -206 -109 -293 -131 -127 -33 -114 -70 -114
311 l0 331 66 71 c36 39 82 100 102 134 26 44 42 61 52 57 8 -3 42 -15 75 -27z
m641 -293 c24 -14 44 -27 44 -28 0 -1 -13 -50 -30 -108 -114 -407 -340 -730
-670 -957 -71 -49 -257 -151 -275 -151 -3 0 -5 40 -5 88 l0 89 83 22 c134 35
281 123 410 244 42 39 48 49 45 78 -2 24 -11 38 -30 48 -31 18 -13 28 -159
-91 -90 -74 -203 -137 -288 -162 -30 -9 -56 -16 -58 -16 -2 0 -3 47 -3 105 0
76 3 107 13 109 6 1 60 15 119 29 300 72 541 264 680 542 20 39 44 96 54 128
10 31 19 57 22 57 2 0 23 -12 48 -26z m-1056 -684 l0 -669 -47 27 -48 28 -3
204 c-2 172 -5 207 -19 222 -21 24 -58 23 -83 -2 -18 -18 -20 -33 -20 -186 0
-91 -3 -164 -8 -162 -4 2 -35 18 -69 37 l-61 34 -6 296 c-3 163 -8 400 -11
528 l-6 232 38 10 c66 19 63 28 63 -173 0 -102 4 -196 10 -210 14 -39 53 -53
85 -32 l25 16 0 214 c0 233 -2 225 58 227 21 0 71 14 100 28 1 0 2 -300 2
-669z m1322 618 c38 -6 72 -16 74 -23 9 -22 -34 -212 -68 -302 -41 -109 -87
-188 -149 -257 -63 -70 -73 -90 -58 -118 30 -58 64 -51 135 25 134 144 202
304 260 605 5 27 15 25 103 -16 l53 -25 -7 -76 c-29 -321 -171 -605 -387 -776
-46 -36 -86 -73 -89 -84 -12 -32 13 -66 51 -69 30 -2 47 6 116 62 218 174 361
430 413 735 l17 104 22 -35 c35 -57 57 -130 148 -502 97 -392 103 -446 65
-531 -26 -59 -81 -119 -134 -146 -20 -11 -136 -58 -257 -104 l-219 -85 -144 0
-144 0 -6 28 c-3 16 -24 51 -45 79 l-40 50 46 27 c25 15 52 25 61 22 9 -2 55
-18 103 -35 85 -30 209 -51 298 -51 58 0 90 22 90 60 0 46 -19 56 -122 63 -95
5 -238 33 -238 46 0 3 78 51 173 106 174 101 217 132 217 158 0 25 -35 60 -61
59 -13 0 -173 -87 -358 -195 -288 -168 -338 -194 -358 -186 -36 14 -144 11
-197 -5 -25 -8 -69 -28 -96 -46 -42 -27 -54 -30 -77 -22 -28 9 -27 9 37 42
160 80 303 196 394 320 39 52 46 70 44 99 -2 25 -10 39 -26 47 -37 18 -60 6
-103 -58 -79 -116 -208 -222 -367 -302 -106 -53 -170 -77 -231 -86 -47 -6 -60
-4 -97 17 -76 42 -65 58 94 134 169 82 284 163 425 299 158 151 275 308 367
490 48 95 114 272 141 378 27 104 19 99 131 80z m-1818 -230 c3 -90 8 -301 11
-470 l5 -308 -29 0 c-37 0 -61 -23 -61 -59 0 -34 12 -45 125 -108 50 -27 184
-103 298 -167 l208 -118 -46 -49 c-25 -27 -48 -62 -51 -79 l-6 -30 -144 0
-143 0 -220 85 c-260 99 -284 111 -333 162 -55 56 -82 124 -81 203 1 71 155
721 198 837 26 69 67 133 112 175 26 25 129 87 144 88 4 0 9 -73 13 -162z
m1396 -1295 c30 -16 65 -43 78 -60 l25 -33 -191 0 -190 0 -4 25 c-4 20 1 30
23 45 81 58 174 66 259 23z m-494 -23 c60 -21 97 -47 88 -61 -3 -5 -98 -9
-212 -9 l-207 0 36 36 c19 19 53 42 75 50 49 18 139 11 220 -16z m359 -264
c-86 -43 -235 -131 -350 -206 -286 -188 -520 -299 -777 -367 -103 -28 -105
-28 -433 -28 l-330 0 -57 28 c-70 34 -140 110 -162 174 -25 74 -22 216 8 278
44 94 115 154 215 181 35 10 285 13 1041 13 l995 1 -150 -74z"/>
<path d="M886 675 c-32 -33 -18 -80 30 -95 62 -21 117 28 90 81 -9 19 -21 25
-58 27 -32 2 -50 -2 -62 -13z"/>
<path d="M1107 672 c-23 -25 -21 -55 4 -78 20 -18 44 -19 409 -22 244 -2 397
1 414 7 39 15 53 53 32 86 l-16 25 -414 0 c-387 0 -414 -1 -429 -18z"/>
</g>
</svg>
