<?xml version="1.0" standalone="no"?>
<!DOCTYPE svg PUBLIC "-//W3C//DTD SVG 20010904//EN"
 "http://www.w3.org/TR/2001/REC-SVG-20010904/DTD/svg10.dtd">
<svg version="1.0" xmlns="http://www.w3.org/2000/svg"
 width="300.000000pt" height="300.000000pt" viewBox="0 0 300.000000 300.000000"
 preserveAspectRatio="xMidYMid meet">
<metadata>
Created by potrace 1.10, written by Peter Selinger 2001-2011
</metadata>
<g transform="translate(0.000000,300.000000) scale(0.100000,-0.100000)"
fill="#000000" stroke="none">
<path d="M1477 2696 c-97 -26 -171 -112 -186 -217 -5 -36 -18 -81 -30 -100
-28 -45 -27 -65 9 -135 16 -32 30 -64 30 -70 0 -6 -12 -17 -27 -24 l-28 -12
24 -9 c34 -13 91 7 91 32 0 10 -9 24 -20 31 -11 7 -20 18 -20 25 0 7 -9 27
-20 45 -11 18 -20 50 -20 71 0 32 3 37 24 37 22 0 23 3 18 48 -6 67 13 126 56
174 138 153 351 66 369 -149 5 -58 9 -71 27 -79 17 -7 20 -16 18 -44 -6 -67
-38 -140 -63 -140 -21 0 -33 -41 -16 -57 7 -6 65 -28 130 -48 162 -50 188 -81
217 -260 5 -33 26 -143 46 -245 46 -239 59 -336 50 -382 -7 -37 -8 -38 -49
-38 -89 0 -231 -53 -294 -109 -18 -16 -33 -31 -33 -35 0 -13 42 -5 80 14 43
22 50 24 50 12 0 -4 -33 -23 -72 -42 -40 -19 -88 -51 -108 -71 -20 -21 -51
-44 -70 -53 -40 -18 -135 -72 -165 -92 -19 -14 -19 -14 0 -14 26 0 103 37 187
88 57 35 146 82 155 82 2 0 3 -4 3 -9 0 -5 -17 -20 -37 -32 -21 -13 -39 -27
-41 -31 -2 -4 -8 -8 -13 -8 -16 0 -92 -53 -120 -82 -18 -19 -36 -28 -57 -28
-18 0 -32 -4 -32 -10 0 -11 30 -14 95 -11 30 2 36 -1 25 -8 -8 -6 -24 -11 -35
-11 -14 0 -16 -3 -8 -11 22 -22 114 39 192 128 72 82 171 164 171 140 0 -6
-29 -38 -65 -71 -73 -64 -152 -162 -141 -174 4 -4 21 8 37 26 22 25 29 28 29
15 1 -14 6 -12 27 12 65 75 105 116 110 112 2 -3 -16 -28 -41 -56 -46 -52 -71
-89 -64 -97 3 -2 28 25 57 61 28 36 56 65 60 65 21 0 -5 -45 -53 -90 -28 -27
-48 -52 -44 -56 10 -9 96 69 129 117 14 21 45 57 67 80 23 23 42 46 42 51 0 4
6 8 14 8 7 0 23 -21 34 -48 l21 -47 -1 48 c-1 31 -8 54 -21 68 -23 24 -14 38
13 21 28 -17 31 -15 24 13 -5 21 -3 25 15 25 26 0 28 28 4 37 -26 10 -43 29
-43 47 0 22 21 20 61 -7 88 -59 104 -149 44 -252 -60 -103 -76 -144 -79 -204
-2 -31 -11 -71 -20 -88 -9 -18 -16 -33 -16 -35 0 -2 15 -11 33 -21 18 -10 41
-33 51 -51 17 -32 17 -34 -4 -72 -12 -21 -31 -50 -42 -64 -11 -14 -32 -46 -48
-71 -38 -63 -104 -89 -225 -89 -84 0 -84 0 -110 34 -25 33 -25 36 -11 63 l15
28 7 -33 c4 -22 11 -31 20 -28 7 3 17 -1 21 -8 7 -11 13 -11 38 0 17 7 24 13
17 14 -6 0 -30 19 -52 41 -22 23 -40 36 -40 30 0 -7 -4 -10 -10 -6 -5 3 -7 13
-4 23 4 12 3 14 -3 4 -11 -15 -76 7 -176 60 -73 39 -68 47 9 12 33 -14 71 -30
87 -34 24 -8 27 -6 27 16 0 19 -5 24 -24 24 -13 0 -29 7 -36 15 -7 8 -16 12
-21 9 -5 -3 -16 -1 -25 4 -10 5 -33 5 -58 0 -31 -6 -53 -4 -92 10 -44 15 -66
17 -160 9 -60 -4 -122 -5 -139 -2 -93 18 -252 32 -279 24 -47 -14 -150 -11
-171 5 -13 9 -16 20 -12 37 5 19 -3 34 -42 74 -45 47 -80 109 -68 121 3 3 30
-19 62 -48 69 -65 113 -90 143 -83 17 4 24 0 32 -20 8 -22 40 -36 40 -17 0 15
-40 72 -51 72 -6 0 -9 7 -6 14 4 9 -7 29 -24 47 -33 36 -36 47 -13 56 15 6 15
7 -1 20 -32 23 -9 26 97 14 57 -6 174 -11 262 -12 95 0 155 -4 149 -10 -13
-13 -110 -29 -158 -27 -73 4 -156 -2 -151 -10 3 -5 32 -17 65 -27 33 -11 57
-23 55 -27 -3 -5 4 -8 15 -8 12 0 21 -4 21 -8 0 -5 6 -9 13 -9 20 0 67 -34 67
-49 0 -11 -5 -11 -25 -2 -14 6 -25 15 -25 19 0 12 -104 58 -126 55 -10 -2 -26
1 -34 5 -22 11 -136 35 -148 31 -12 -4 3 -56 22 -80 32 -39 49 -53 61 -48 7 2
16 -2 19 -10 3 -8 10 -14 16 -14 6 0 8 5 5 10 -9 14 11 13 35 -2 16 -10 22
-10 32 1 9 9 10 15 2 18 -30 11 -49 32 -38 43 15 15 91 -12 110 -39 8 -11 20
-26 27 -33 7 -7 16 -20 19 -30 6 -15 12 -15 75 -1 45 10 78 24 98 42 17 16 47
38 68 50 58 35 72 72 36 92 -15 8 -24 8 -32 0 -6 -6 -36 -11 -67 -11 -49 -1
-53 -2 -36 -15 19 -14 84 -14 121 0 18 7 18 6 -2 -16 -30 -30 -80 -29 -211 7
-155 42 -177 63 -48 45 42 -6 110 -8 152 -4 76 6 76 6 53 24 -13 9 -27 15 -31
13 -4 -2 -10 2 -15 9 -13 22 -71 35 -158 36 -158 1 -382 35 -410 62 -9 9 76 5
133 -7 156 -32 312 -49 312 -35 0 10 -20 15 -42 12 -4 0 -46 7 -94 16 -67 12
-83 18 -69 25 9 6 35 8 56 5 22 -3 39 -1 39 4 0 5 -12 10 -27 11 -16 0 -49 2
-75 3 -60 3 -98 13 -98 24 0 5 16 5 38 0 49 -11 62 -11 62 1 0 6 -13 10 -29
10 -17 0 -33 5 -36 10 -3 6 1 10 11 10 13 0 14 3 4 15 -8 9 -9 15 -2 15 6 0
13 -4 17 -9 9 -15 98 -62 109 -58 6 2 -7 13 -29 25 -44 22 -113 72 -102 72 4
0 20 -7 35 -16 l27 -16 -25 23 c-14 13 -37 31 -50 40 -14 9 -22 20 -18 24 4 4
20 0 35 -10 29 -19 93 -29 93 -14 0 13 -83 48 -162 68 -63 16 -72 22 -84 51
-20 46 -17 111 11 304 25 176 25 265 -2 316 -19 37 -17 47 20 93 19 23 44 61
57 84 13 24 25 41 28 39 2 -2 20 7 39 20 37 25 63 23 29 -2 -19 -13 -18 -14
13 -14 28 0 31 -2 18 -14 -8 -8 -29 -14 -47 -14 -34 1 -51 -13 -119 -101 l-35
-43 40 -34 c42 -36 49 -40 59 -24 13 21 24 9 18 -21 -5 -28 1 -37 63 -100 38
-38 74 -69 82 -69 7 0 15 -7 18 -15 4 -8 11 -15 18 -15 13 0 51 -93 85 -205
12 -38 29 -79 39 -90 23 -28 92 -69 92 -56 0 6 -13 17 -28 25 -16 8 -34 22
-42 31 -18 22 -30 93 -16 99 6 2 3 5 -7 5 -10 1 -16 5 -12 10 3 5 -6 35 -20
66 -30 69 -19 68 29 -3 28 -42 35 -61 31 -87 -2 -19 3 -48 11 -64 18 -36 34
-49 34 -27 0 9 7 16 15 16 12 0 14 7 9 26 -6 24 -5 26 16 19 22 -7 22 -6 -4
21 -14 16 -26 33 -26 38 0 5 -10 17 -22 27 -25 23 -18 35 11 19 22 -11 31 3
10 16 -6 3 -8 18 -5 33 4 17 3 21 -2 13 -6 -9 -11 -1 -15 27 -3 22 -15 54 -26
70 -12 17 -44 82 -71 145 -27 64 -64 141 -82 171 -18 31 -38 65 -44 77 -7 11
-14 16 -18 10 -3 -5 13 -47 35 -93 42 -87 73 -168 67 -175 -10 -9 -68 43 -73
66 -8 30 -33 60 -51 60 -7 0 -34 -9 -60 -20 -26 -11 -55 -18 -65 -15 -29 9
-49 34 -42 51 9 24 94 84 118 84 28 0 55 30 55 62 0 14 9 33 20 43 43 39 14
84 -42 66 -49 -16 -144 -108 -167 -161 -10 -25 -33 -63 -51 -85 -23 -29 -30
-46 -26 -65 29 -132 30 -157 7 -317 -42 -304 -30 -375 69 -400 27 -7 40 -19
59 -54 l24 -45 -23 -32 c-19 -26 -26 -29 -42 -21 -17 9 -18 8 -9 -9 9 -18 6
-20 -38 -26 -52 -7 -65 -21 -55 -61 3 -12 1 -26 -5 -29 -6 -4 -11 -15 -11 -24
0 -10 -15 -25 -33 -35 -32 -17 -35 -17 -64 -1 -26 15 -33 16 -47 5 -34 -29
-14 -101 43 -155 17 -16 34 -44 37 -63 4 -20 19 -44 37 -59 30 -25 34 -26 117
-19 125 10 237 6 302 -11 47 -12 78 -12 169 -4 106 10 114 10 185 -15 70 -23
229 -97 247 -114 14 -13 -4 -61 -22 -61 -41 0 -55 -52 -20 -70 16 -9 24 -8 39
5 18 16 21 16 52 -6 29 -21 44 -24 128 -24 81 0 103 4 150 26 50 23 63 36 123
126 92 137 95 165 25 239 -25 27 -27 34 -18 58 5 15 10 50 10 79 0 43 8 65 49
137 73 126 84 194 46 270 -26 49 -94 100 -135 100 -18 0 -20 4 -15 33 6 37 -4
103 -70 457 -26 140 -56 276 -67 302 -28 65 -80 110 -153 132 -93 28 -145 48
-145 56 0 4 7 13 15 20 18 15 55 113 55 147 0 14 -9 40 -19 57 -11 17 -24 56
-30 88 -14 76 -32 117 -72 163 -58 65 -149 93 -232 71z m-372 -629 c-3 -7 -20
-18 -38 -25 -17 -7 -45 -20 -61 -28 -43 -22 -42 -10 1 17 73 45 105 57 98 36z
m-11 -299 c8 -31 -4 -38 -39 -22 -30 13 -30 13 -7 20 18 5 20 9 10 15 -9 6 -7
9 8 9 14 0 24 -8 28 -22z m34 -73 c20 -4 32 -13 32 -23 0 -8 7 -24 17 -34 9
-10 13 -21 9 -25 -4 -4 -11 -1 -16 6 -4 8 -15 11 -23 8 -9 -3 -19 4 -26 19 -6
13 -22 29 -36 36 -28 13 -34 32 -7 24 9 -2 32 -7 50 -11z m133 -120 c64 -128
66 -170 4 -105 -16 17 -34 30 -39 30 -6 1 -24 19 -39 41 l-28 40 27 21 c21 17
25 26 20 51 -9 43 -2 33 55 -78z m912 -487 l18 -32 -93 -93 c-78 -78 -95 -91
-106 -79 -11 11 -11 17 -1 33 7 11 9 28 6 37 -12 30 -39 31 -89 3 -44 -25 -49
-26 -55 -10 -4 9 -2 18 5 21 29 9 62 46 62 67 0 30 24 44 110 65 105 26 122
25 143 -12z m-1338 -443 c26 -27 30 -37 18 -48 -9 -9 -44 23 -37 34 3 5 0 9
-5 9 -6 0 -11 7 -11 15 0 21 5 19 35 -10z m179 -11 c20 -8 21 -34 2 -34 -13 0
-46 26 -46 36 0 6 26 5 44 -2z m353 -50 c4 -12 -66 -45 -79 -38 -3 2 -1 15 5
29 10 20 18 25 41 23 16 -2 31 -8 33 -14z"/>
<path d="M1240 2115 c0 -4 18 -69 40 -145 22 -76 40 -141 40 -144 0 -16 -18
-2 -34 27 -22 37 -56 77 -67 77 -18 0 120 -229 144 -239 4 -1 17 -12 28 -24
16 -17 19 -18 19 -5 0 9 -5 29 -11 45 -9 22 -73 229 -118 383 -6 22 -41 43
-41 25z m113 -360 c21 -44 22 -61 2 -41 -8 8 -15 21 -15 30 0 8 -4 18 -10 21
-12 7 -13 25 -2 25 5 0 16 -16 25 -35z"/>
<path d="M1120 1975 c0 -3 22 -40 48 -83 80 -127 179 -312 213 -396 33 -84 77
-162 86 -153 3 3 -8 25 -24 49 -39 58 -52 93 -18 53 13 -16 27 -26 32 -22 8 9
-88 211 -133 276 -17 25 -48 79 -69 120 -41 79 -135 188 -135 156z"/>
<path d="M1882 1535 c-7 -22 -12 -53 -12 -69 0 -16 -5 -45 -11 -65 -10 -32 -8
-42 15 -85 14 -27 26 -60 26 -74 l0 -25 23 21 c21 20 22 26 14 84 -9 64 -19
128 -35 208 l-8 45 -12 -40z"/>
<path d="M1052 1385 c3 -30 2 -55 -1 -55 -4 0 -12 -14 -18 -31 -11 -27 -9 -33
16 -61 l28 -31 7 57 c3 32 11 67 17 78 8 16 5 28 -15 59 -15 21 -29 39 -32 39
-4 0 -4 -25 -2 -55z"/>
<path d="M1118 928 c7 -9 24 -18 37 -21 28 -5 34 8 8 16 -10 2 -27 8 -38 13
-17 7 -18 6 -7 -8z"/>
<path d="M2082 829 c-15 -24 -15 -40 0 -36 7 1 21 -15 31 -35 10 -21 23 -38
28 -38 14 0 11 13 -19 73 -26 50 -29 54 -40 36z"/>
<path d="M2166 760 c5 -19 8 -47 9 -62 0 -35 19 -30 23 6 2 15 -6 40 -18 59
l-21 32 7 -35z"/>
<path d="M1582 658 c3 -7 17 -15 33 -16 25 -3 27 -2 16 12 -16 19 -55 22 -49
4z"/>
<path d="M1515 608 c-3 -24 -9 -52 -12 -63 -5 -17 -4 -18 11 -6 9 8 16 28 16
47 0 19 5 34 10 34 6 0 10 -15 10 -32 0 -25 3 -29 10 -18 16 25 11 59 -9 70
-28 15 -29 14 -36 -32z"/>
<path d="M1473 568 c-4 -8 -19 -22 -32 -31 -31 -21 -39 -57 -12 -57 26 0 48
23 56 61 8 34 1 48 -12 27z"/>
<path d="M1859 387 c-2 -42 2 -52 41 -89 44 -43 72 -48 93 -17 12 16 12 27 3
59 -6 21 -15 42 -19 47 -5 4 -5 0 -1 -10 10 -26 -12 -20 -31 9 -9 14 -19 23
-22 20 -3 -3 0 -12 7 -21 7 -9 10 -18 6 -22 -3 -4 -13 2 -21 14 -22 31 -55 37
-56 10z"/>
<path d="M2000 380 c11 -20 80 -74 80 -63 0 5 -5 14 -12 21 -9 9 -6 12 15 12
19 0 25 4 21 15 -7 16 -31 26 -79 29 -29 3 -33 1 -25 -14z"/>
<path d="M2110 375 c13 -14 27 -25 32 -25 4 0 2 11 -4 25 -6 15 -20 25 -31 25
-20 0 -19 -1 3 -25z"/>
</g>
</svg>
