<svg width="52" height="59" viewBox="0 0 52 59" fill="none" xmlns="http://www.w3.org/2000/svg">
<path d="M6.87929 26.2536V7.75365C6.87929 5.35365 9.21262 4.42031 10.3793 4.25365C11.327 4.25365 12.3762 4.25365 13.5 4.25365M6.87929 26.2536L1.37929 43.2536C0.879292 44.2536 0.479292 46.5536 2.87929 47.7536C5.27929 48.9536 6.54596 49.2536 6.87929 49.2536M6.87929 26.2536V49.2536M6.87929 49.2536V49.7536C7.04596 51.087 7.97929 53.7536 10.3793 53.7536C11.6237 53.7536 17.5823 53.7536 24.3793 53.7536M39.3793 53.7536C40.4557 53.7536 41.4635 53.7536 42.3793 53.7536C43.546 53.7536 45.8793 52.9536 45.8793 49.7536C45.8793 48.0573 45.8793 39.9166 45.8793 30.7536M39.3793 53.7536L38.3793 55.7536C37.8793 56.587 36.2793 58.0536 33.8793 57.2536C31.4793 56.4536 26.5459 54.587 24.3793 53.7536M39.3793 53.7536C34.9849 53.7536 29.4489 53.7536 24.3793 53.7536M45.8793 30.7536C45.8793 22.6313 45.8793 13.7057 45.8793 7.75365C45.8793 6.58698 45.1793 4.25365 42.3793 4.25365C40.8796 4.25365 34.5319 4.25365 27.5 4.25365M45.8793 30.7536L50.8793 15.2536C51.2931 14.2536 51.4966 11.9536 49 10.7536L45.8793 9.5M27.5 4.25365L18 1.25365C16.5 0.753647 13.5 0.653647 13.5 4.25365M27.5 4.25365C22.7125 4.25365 17.6079 4.25365 13.5 4.25365M12.5 11.7536H39M12.5 16.2536H39M12.5 20.7536H39M12.5 25.7536L39 25.2536M12.5 30.2536L39 29.7536M27 39.2536L30.3793 43.7536L38 34.7536M35 47.7536H26.5M12 47.7536L14.5 42.0036M22.5 47.2536L20 42.0036M14.5 42.0036L17 36.2536L20 42.0036M14.5 42.0036H20M22.5 34.2536V39.2536M25 36.7536H20" stroke="black" stroke-width="1.5"/>
</svg>
