<svg width="58" height="57" viewBox="0 0 58 57" fill="none" xmlns="http://www.w3.org/2000/svg">
<path d="M54.3613 34.7789C53.7228 33.9232 52.3892 32.5841 50.5497 31.5035M57 43.0316C57 51.2842 50.2565 56 44.9791 56C40.5333 56 34.2151 53.0718 32.3339 46.8632M49.9634 37.1368L43.8063 48.0421L38.822 43.0316M50.5497 31.5035C49.0102 30.5992 47.1164 29.8759 44.9791 29.7684C39.1152 29.4737 31.7853 34.1895 31.7853 43.0316C31.7853 44.4251 31.982 45.7016 32.3339 46.8632M50.5497 31.5035V15.6211M32.3339 46.8632H1V15.6211M50.5497 15.6211V5.01053H1V15.6211M50.5497 15.6211H1M10.3822 0V10.9053M41.4607 0V10.9053M7.74346 22.4H14.1937M22.6963 22.4H29.1466M37.6492 22.4H44.0995M7.74346 39.4947H14.1937M7.74346 30.9474H14.1937M22.6963 30.9474H29.1466" stroke="black" stroke-width="1.5"/>
</svg>
