<svg width="43" height="46" viewBox="0 0 43 46" fill="none" xmlns="http://www.w3.org/2000/svg">
<path d="M31.5 5.00002H7V44M31.5 5.00002H37V22M31.5 5.00002C31.3333 4.33335 31.5 3.00002 31 2.00002C30.6422 1.28447 29.6667 1.00002 29 1.00002L2 4.00002C1 4.00002 1 5.00002 1 6.00002C1 7.00002 4 31.3333 5.5 43C5.5 43.5 6.2 44.4 7 44M7 44V45H37V39.5" stroke="black" stroke-width="1.5"/>
<path d="M40.5597 29.5712L29.4666 40.0204M40.5597 29.5712L38.1331 27.2854M40.5597 29.5712L41.5997 28.5916C41.9464 28.265 42.293 27.2854 41.5997 26.6323C40.6192 25.7087 39.6353 25.9792 39.1731 26.3058L38.1331 27.2854M29.4666 40.0204L27.04 37.7346M29.4666 40.0204L26 41L27.04 37.7346M27.04 37.7346L38.1331 27.2854" stroke="black" stroke-width="1.5"/>
<path d="M12 12H32M12 17.5H32M12 24.5H32M12 31.5H27.5M12 38.5H23" stroke="black" stroke-width="1.5"/>
</svg>
