<svg width="50" height="43" viewBox="0 0 50 43" fill="none" xmlns="http://www.w3.org/2000/svg">
<path d="M1 11.8099V28.6164C1 29.7957 1.6 32.1545 4 32.1545C6.4 32.1545 14.6667 32.1545 18.5 32.1545L25 41L31 32.1545H46C47 32.1545 49 31.4469 49 28.6164C49 25.7858 49 11.5151 49 4.73357C49 3.70159 48.2 1.5492 45 1.19538C41.8 0.841558 16.3333 1.04795 4 1.19538C3 1.3428 1 2.16838 1 4.2913C1 6.41421 1 7.23979 1 7.38721M9 22.4245L10.3125 19.3286M18.5 22.4245L17.0417 19.3286M10.3125 19.3286L13.5 11.8099L17.0417 19.3286M10.3125 19.3286H17.0417M22.5 17.1172H29M32.5 11.3677H39.5L33.5 22.4245H41" stroke="black" stroke-width="1.5"/>
</svg>
