<svg width="40" height="40" viewBox="0 0 40 40" fill="none" xmlns="http://www.w3.org/2000/svg">
<path d="M15.5383 29.3716C16.6083 34.7633 21.3643 38.8281 27.0703 38.8281C29.4296 38.8281 31.6262 38.1327 33.4674 36.9364L38.2629 38.2628L36.9365 33.4673C38.1328 31.6261 38.8281 29.4295 38.8281 27.0703C38.8281 21.3642 34.7634 16.6082 29.3717 15.5382" stroke="#404040" stroke-width="1.5" stroke-miterlimit="10"/>
<path d="M15.2734 1.17181C7.48539 1.17181 1.17188 7.48533 1.17188 15.2734C1.17188 18.0654 1.98352 20.6678 3.38336 22.8578L1.73711 28.8097L7.68898 27.1635C9.87906 28.5634 12.4814 29.3749 15.2734 29.3749C23.0615 29.3749 29.375 23.0614 29.375 15.2734C29.375 7.48533 23.0615 1.17181 15.2734 1.17181Z" stroke="#404040" stroke-width="1.5" stroke-miterlimit="10"/>
<path d="M16.4453 23.5156H14.1016V21.1718H16.4453V23.5156Z" fill="#404040"/>
<path d="M11.7578 11.7187C11.7578 9.77705 13.3318 8.20306 15.2734 8.20306C17.2151 8.20306 18.7891 9.77705 18.7891 11.7187C18.7891 12.746 18.3482 13.6703 17.6455 14.3131L15.2734 16.4843V18.8281" stroke="#404040" stroke-width="1.5" stroke-miterlimit="10"/>
</svg>
