<svg width="24" height="24" viewBox="0 0 24 24" fill="none" xmlns="http://www.w3.org/2000/svg">
<path d="M3.828 21.0034L3.808 21.0234L3.787 21.0034H1.992C1.72881 21.0032 1.4765 20.8984 1.29049 20.7122C1.10448 20.526 1 20.2736 1 20.0104V3.99644C1.00183 3.73382 1.1069 3.48245 1.29251 3.29665C1.47813 3.11085 1.73738 3.02553 2 3.02344H20C20.548 3.02344 21 3.44844 21 3.99644V20.0104C20.9982 20.2731 20.8931 20.5244 20.7075 20.7102C20.5219 20.896 20.2706 21.0013 20.008 21.0034H3.828ZM20.008 16.2423L20 4.02344H2V20.0104L13 11.0034L20.008 16.2423ZM20 17.2904L13 12.0234L3.47178 20.0104H20.008L20 17.2904ZM7 11.0034C6.46957 11.0034 5.96086 10.7927 5.58579 10.4177C5.21071 10.0426 5 9.53387 5 9.00344C5 8.473 5.21071 7.9643 5.58579 7.58922C5.96086 7.21415 6.46957 7.00344 7 7.00344C7.53043 7.00344 8.03914 7.21415 8.41421 7.58922C8.78929 7.9643 9 8.473 9 9.00344C9 9.53387 8.78929 10.0426 8.41421 10.4177C8.03914 10.7927 7.53043 11.0034 7 11.0034Z" fill="#09121F"/>
</svg>
