<svg width="37" height="48" viewBox="0 0 37 48" fill="none" xmlns="http://www.w3.org/2000/svg">
<path d="M4.21816 19.619V33.8571C3.98176 34.3992 2.40126 35.3175 1.31108 37.1429C0.220892 38.9683 2.2801 40.3069 3.128 40.4286H33.6523C35.978 40.4286 36.5594 37.5079 35.4693 36.4127C34.3791 35.3175 32.5622 33.8571 32.5622 33.8571V19.619C32.5622 9.68889 24.5677 5.98942 20.5705 5.38095V3.19048C20.5705 2.46032 20.1344 1 18.3902 1C16.6459 1 16.2099 2.46032 16.2099 3.19048V5.38095C6.6165 7.4254 4.21816 15.7249 4.21816 19.619Z" stroke="black" stroke-width="1.5"/>
<path d="M23.4775 42.254H13.6661C13.7873 43.836 14.9743 47 18.7535 47C22.5327 47 23.4775 43.836 23.4775 42.254Z" stroke="black" stroke-width="1.5"/>
</svg>
