<svg width="53" height="36" viewBox="0 0 53 36" fill="none" xmlns="http://www.w3.org/2000/svg">
<path d="M49.7038 12.4525C50.7639 7.28681 47.6471 2.58454 42.4764 1.54873" stroke="#404040" stroke-width="1.5" stroke-miterlimit="10" stroke-linecap="round" stroke-linejoin="round"/>
<path d="M46.86 9.85339C46.93 8.85881 46.6601 7.86054 46.0916 7.00284C45.5172 6.13633 44.7088 5.50762 43.7668 5.17754" stroke="#404040" stroke-width="1.5" stroke-miterlimit="10" stroke-linecap="round" stroke-linejoin="round"/>
<path d="M4.80643 7.32553C2.70427 7.32553 1.00001 9.18414 1.00001 11.4767V30.8488C1.00001 33.1413 2.70427 34.9999 4.80643 34.9999H40.3331C42.4353 34.9999 44.1395 33.1413 44.1395 30.8488V11.4767C44.1395 9.18414 42.4353 7.32553 40.3331 7.32553L4.80643 7.32553Z" stroke="#404040" stroke-width="1.5" stroke-miterlimit="10" stroke-linecap="round" stroke-linejoin="round"/>
<path d="M29.1867 20.8467C29.0184 20.1948 28.6176 19.6506 28.0592 19.315L24.5951 17.2228C24.5604 17.1991 24.5253 17.1765 24.49 17.1553L21.0348 15.0683C20.6391 14.7953 20.179 14.6511 19.7026 14.6511C18.3663 14.6511 17.2791 15.7884 17.2791 17.1865V25.8252C17.2791 25.8553 17.2808 25.8851 17.2842 25.9143C17.2981 26.3277 17.4096 26.7336 17.6089 27.0937C18.0402 27.8727 18.8431 28.3566 19.7043 28.3566C20.1282 28.3566 20.547 28.2387 20.9145 28.016L24.49 25.8563C24.5103 25.844 24.5298 25.8309 24.5485 25.8169L28.0339 23.7119C28.4144 23.4896 28.7307 23.1625 28.949 22.7652C29.2706 22.1799 29.355 21.4985 29.1867 20.8467ZM27.7212 22.027C27.6303 22.1924 27.4988 22.3282 27.341 22.4199C27.3376 22.4219 27.334 22.424 27.3305 22.426L23.7804 24.5701C23.7601 24.5823 23.7406 24.5955 23.7219 24.6095L20.2055 26.7334C20.0526 26.826 19.8793 26.8751 19.7043 26.8751C19.3467 26.8751 19.0134 26.6744 18.8345 26.3512C18.7458 26.1909 18.699 26.0093 18.6991 25.8259C18.6991 25.8007 18.6979 25.7756 18.6954 25.7507V17.1865H18.6955C18.6955 16.6055 19.1474 16.1327 19.7028 16.1327C19.9046 16.1327 20.099 16.1947 20.2647 16.3118C20.2785 16.3215 20.2926 16.3308 20.307 16.3395L23.7834 18.4393C23.8008 18.4498 23.8175 18.4609 23.8341 18.4724C23.8458 18.4805 23.8578 18.4882 23.87 18.4956L27.3524 20.5989C27.584 20.7381 27.7498 20.9633 27.8195 21.2331C27.8891 21.5029 27.8542 21.7849 27.7212 22.027Z" fill="#404040"/>
</svg>
