<svg width="24" height="24" viewBox="0 0 24 24" fill="none" xmlns="http://www.w3.org/2000/svg">
<circle cx="12" cy="12" r="11.5" stroke="#09121F"/>
<path d="M9.62908 15.3708C9.39158 15.3708 9.15825 15.3083 8.94159 15.1833C8.50825 14.9333 8.25409 14.4917 8.25409 13.9917V10.0042C8.25409 9.50833 8.51242 9.0625 8.94159 8.8125C9.37492 8.5625 9.88741 8.5625 10.3166 8.8125L13.7708 10.8042C14.1999 11.0542 14.4582 11.5 14.4582 11.9958C14.4582 12.4917 14.1999 12.9375 13.7708 13.1875L10.3166 15.1792C10.0999 15.3083 9.86658 15.3708 9.62908 15.3708ZM9.62908 9.25417C9.49991 9.25417 9.37075 9.2875 9.25409 9.35416C9.02075 9.49166 8.87909 9.73333 8.87909 10.0042V13.9917C8.87909 14.2625 9.02075 14.5042 9.25409 14.6417C9.48742 14.775 9.77075 14.7792 10.0041 14.6417L13.4583 12.65C13.6916 12.5125 13.8332 12.2708 13.8332 12C13.8332 11.7292 13.6916 11.4875 13.4583 11.35L10.0041 9.35833C9.88741 9.29167 9.75825 9.25417 9.62908 9.25417Z" fill="#09121F"/>
<path d="M15.4334 14.8877C15.2626 14.8877 15.1209 14.746 15.1209 14.5752V9.42517C15.1209 9.25434 15.2626 9.11267 15.4334 9.11267C15.6042 9.11267 15.7459 9.25434 15.7459 9.42517V14.5752C15.7459 14.746 15.6084 14.8877 15.4334 14.8877Z" fill="#09121F"/>
<path d="M9 10.5L9.5 9.5L11.5 10.5L13.5 12L11.5 13.5L9.5 14.5L9 13.5V12V10.5Z" fill="#09121F" stroke="#09121F"/>
</svg>
