<svg width="24" height="24" viewBox="0 0 24 24" fill="none" xmlns="http://www.w3.org/2000/svg">
<circle cx="12" cy="12" r="11.5" stroke="#09121F"/>
<path d="M14.3707 15.371C14.1332 15.371 13.8998 15.3085 13.6832 15.1835L10.229 13.1918C9.79983 12.9418 9.5415 12.496 9.5415 12.0001C9.5415 11.5043 9.79983 11.0585 10.229 10.8085L13.6832 8.81677C14.1123 8.56677 14.6248 8.56677 15.0582 8.81677C15.4915 9.06677 15.7457 9.50844 15.7457 10.0084V13.996C15.7457 14.4918 15.4873 14.9376 15.0582 15.1876C14.8415 15.3085 14.6082 15.371 14.3707 15.371ZM14.3707 9.25428C14.2415 9.25428 14.1123 9.28761 13.9957 9.35427L10.5415 11.346C10.3082 11.4835 10.1665 11.7251 10.1665 11.996C10.1665 12.2668 10.3082 12.5085 10.5415 12.646L13.9957 14.6376C14.229 14.7751 14.5123 14.7751 14.7457 14.6376C14.979 14.5001 15.1207 14.2585 15.1207 13.9876V10.0001C15.1207 9.72928 14.979 9.48762 14.7457 9.35012C14.629 9.29179 14.4998 9.25428 14.3707 9.25428Z" fill="#09121F"/>
<path d="M8.56659 14.8874C8.39576 14.8874 8.25409 14.7458 8.25409 14.5749V9.42493C8.25409 9.25409 8.39576 9.11243 8.56659 9.11243C8.73742 9.11243 8.87909 9.25409 8.87909 9.42493V14.5749C8.87909 14.7458 8.73742 14.8874 8.56659 14.8874Z" fill="#09121F"/>
<path d="M10.0269 11.9559L10.5 11L12 9.99996L15 9.00002L15.5 12L15.5 14L14.5 15L10 12.5L10.0269 11.9559Z" fill="#09121F"/>
</svg>
