<svg width="24" height="20" viewBox="0 0 24 20" fill="none" xmlns="http://www.w3.org/2000/svg">
<path d="M12 6.01703C12.4945 6.01703 12.9778 6.16365 13.3889 6.43835C13.8001 6.71306 14.1205 7.1035 14.3097 7.56032C14.4989 8.01714 14.5484 8.5198 14.452 9.00475C14.3555 9.48971 14.1174 9.93516 13.7678 10.2848C13.4181 10.6344 12.9727 10.8725 12.4877 10.969C12.0028 11.0655 11.5001 11.0159 11.0433 10.8267C10.5865 10.6375 10.196 10.3171 9.92133 9.90595C9.64662 9.49483 9.5 9.01148 9.5 8.51703C9.5 7.85399 9.76339 7.2181 10.2322 6.74926C10.7011 6.28042 11.337 6.01703 12 6.01703ZM12 4.51703C11.2089 4.51703 10.4355 4.75162 9.77772 5.19115C9.11993 5.63068 8.60723 6.25539 8.30448 6.98629C8.00173 7.7172 7.92252 8.52147 8.07686 9.29739C8.2312 10.0733 8.61216 10.786 9.17157 11.3455C9.73098 11.9049 10.4437 12.2858 11.2196 12.4402C11.9956 12.5945 12.7998 12.5153 13.5307 12.2125C14.2616 11.9098 14.8864 11.3971 15.3259 10.7393C15.7654 10.0815 16 9.30815 16 8.51703C16 7.45616 15.5786 6.43875 14.8284 5.6886C14.0783 4.93846 13.0609 4.51703 12 4.51703Z" fill="#F6F6F9"/>
<path d="M14 0H10C7.34784 0 4.8043 1.05357 2.92893 2.92893C1.05357 4.8043 0 7.34784 0 10C0 12.6522 1.05357 15.1957 2.92893 17.0711C4.8043 18.9464 7.34784 20 10 20H14C16.6522 20 19.1957 18.9464 21.0711 17.0711C22.9464 15.1957 24 12.6522 24 10C24 7.34784 22.9464 4.8043 21.0711 2.92893C19.1957 1.05357 16.6522 0 14 0ZM10 18.5C8.54554 18.5003 7.11567 18.1249 5.849 17.41C6.218 16.473 7.649 15.75 9.308 15.75H14.692C16.351 15.75 17.782 16.473 18.151 17.41C16.8843 18.1249 15.4545 18.5003 14 18.5H10ZM19.4 16.558C18.888 15.7923 18.1826 15.1756 17.3555 14.7703C16.5284 14.365 15.6088 14.1855 14.69 14.25H9.308C8.38949 14.1859 7.47035 14.3655 6.6436 14.7708C5.81686 15.1761 5.11187 15.7927 4.6 16.558C3.24987 15.4447 2.27626 13.9418 1.8121 12.2546C1.34794 10.5673 1.41585 8.77792 2.00657 7.1307C2.59728 5.48349 3.68201 4.05873 5.11264 3.05097C6.54326 2.04322 8.25007 1.50157 10 1.5H14C15.7499 1.50157 17.4567 2.04322 18.8874 3.05097C20.318 4.05873 21.4027 5.48349 21.9934 7.1307C22.5841 8.77792 22.6521 10.5673 22.1879 12.2546C21.7237 13.9418 20.7501 15.4447 19.4 16.558Z" fill="#F6F6F9"/>
</svg>
