<svg width="55" height="55" viewBox="0 0 55 55" fill="none" xmlns="http://www.w3.org/2000/svg">
<path d="M27.5 13.75C25.8003 13.75 24.1388 14.254 22.7256 15.1983C21.3123 16.1426 20.2109 17.4848 19.5604 19.0551C18.91 20.6254 18.7398 22.3533 19.0714 24.0203C19.403 25.6873 20.2214 27.2186 21.4233 28.4205C22.6252 29.6223 24.1564 30.4408 25.8234 30.7724C27.4905 31.104 29.2184 30.9338 30.7887 30.2833C32.359 29.6329 33.7012 28.5314 34.6454 27.1182C35.5897 25.7049 36.0938 24.0434 36.0938 22.3438C36.0938 20.0645 35.1883 17.8787 33.5767 16.2671C31.9651 14.6554 29.7792 13.75 27.5 13.75ZM27.5 27.5C26.4802 27.5 25.4833 27.1976 24.6353 26.631C23.7874 26.0644 23.1265 25.2591 22.7363 24.317C22.346 23.3748 22.2439 22.338 22.4428 21.3378C22.6418 20.3376 23.1329 19.4188 23.854 18.6977C24.5751 17.9766 25.4939 17.4855 26.4941 17.2866C27.4943 17.0876 28.531 17.1897 29.4732 17.58C30.4154 17.9703 31.2207 18.6312 31.7873 19.4791C32.3538 20.327 32.6563 21.3239 32.6563 22.3438C32.6549 23.7109 32.1112 25.0216 31.1445 25.9883C30.1778 26.955 28.8671 27.4986 27.5 27.5Z" fill="#404040"/>
<path d="M27.5 3.4375C22.7409 3.4375 18.0887 4.84874 14.1316 7.49276C10.1745 10.1368 7.09039 13.8948 5.26916 18.2917C3.44793 22.6885 2.97141 27.5267 3.89987 32.1944C4.82832 36.862 7.12005 41.1496 10.4853 44.5148C13.8505 47.88 18.138 50.1717 22.8057 51.1001C27.4733 52.0286 32.3115 51.5521 36.7083 49.7309C41.1052 47.9096 44.8632 44.8255 47.5072 40.8684C50.1513 36.9114 51.5625 32.2591 51.5625 27.5C51.5552 21.1205 49.0177 15.0043 44.5067 10.4933C39.9957 5.98226 33.8795 3.44478 27.5 3.4375ZM17.1875 45.3355V42.9688C17.1889 41.6016 17.7326 40.2909 18.6992 39.3242C19.6659 38.3575 20.9767 37.8139 22.3438 37.8125H32.6563C34.0234 37.8139 35.3341 38.3575 36.3008 39.3242C37.2675 40.2909 37.8111 41.6016 37.8125 42.9688V45.3355C34.683 47.1629 31.124 48.1258 27.5 48.1258C23.876 48.1258 20.3171 47.1629 17.1875 45.3355ZM41.2363 42.8416C41.202 40.5871 40.2835 38.4364 38.6786 36.8527C37.0737 35.2691 34.9109 34.3792 32.6563 34.375H22.3438C20.0891 34.3792 17.9263 35.2691 16.3214 36.8527C14.7165 38.4364 13.798 40.5871 13.7638 42.8416C10.6469 40.0585 8.44892 36.3943 7.46082 32.3343C6.47272 28.2742 6.74112 24.0098 8.23048 20.1057C9.71985 16.2016 12.3599 12.8419 15.8011 10.4716C19.2423 8.10127 23.3223 6.83208 27.5009 6.83208C31.6794 6.83208 35.7594 8.10127 39.2006 10.4716C42.6418 12.8419 45.2819 16.2016 46.7713 20.1057C48.2606 24.0098 48.529 28.2742 47.5409 32.3343C46.5528 36.3943 44.3548 40.0585 41.238 42.8416H41.2363Z" fill="#404040"/>
</svg>
