<svg width="24" height="24" viewBox="0 0 24 24" fill="none" xmlns="http://www.w3.org/2000/svg">
<g clip-path="url(#clip0_340_321)">
<path d="M8.02565 0.41914C7.99304 0.748488 7.98987 17.5637 8.02574 17.9191C8.13334 19.0409 8.02565 19.9192 9.52576 20.9191C10.0931 21.2028 11.1889 21.4322 12.5258 21.4191C13.6213 21.4061 13.8073 21.278 14.0257 21.2063C14.8071 20.9192 15.3071 20.4192 15.8071 19.9192C15.9473 19.642 16.2269 19.3055 16.3724 18.5C16.4383 18.1356 16.3659 17.2696 16.3724 9.00001V1.33514e-05L15.5245 2.09808e-05H15.3615V8.96741C15.3615 18.8805 15.3777 18.137 15.156 18.7011C14.9506 19.2196 14.5018 19.5996 14.0257 19.9191C13.4805 20.1946 13.6604 20.1816 12.3724 20.1946C11.0845 20.2077 10.9007 20.1652 10.5257 19.9794C9.93882 19.6892 9.49514 19.3598 9.23102 18.7305C9.02565 17.9192 9.02233 18.9848 9.03211 9.00654L9.03863 2.09808e-05H8.87885L8.02575 -5.72205e-06L8.02565 0.41914Z" fill="black"/>
<path d="M12.0163 9.57716C11.5826 9.63912 11.1521 9.91303 10.9304 10.2652C10.7674 10.5261 10.7184 10.725 10.7348 11.0967C10.7445 11.3837 10.7608 11.4587 10.8456 11.6413C11.3119 12.6326 12.6521 12.8119 13.3467 11.9772C13.7087 11.5435 13.7869 10.9076 13.5424 10.4054C13.4413 10.1935 13.1119 9.85108 12.9163 9.74999C12.6489 9.61629 12.2608 9.54129 12.0163 9.57716Z" fill="black"/>
</g>
<defs>
<clipPath id="clip0_340_321">
<rect width="24" height="24" fill="white"/>
</clipPath>
</defs>
</svg>
