<svg width="41" height="47" viewBox="0 0 41 47" fill="none" xmlns="http://www.w3.org/2000/svg">
<circle cx="27.5286" cy="22.8429" r="13.4714"/>
<path d="M27 9V4.5C27 3.33333 26.4 1 24 1C23.5139 1 22.6369 1 21.5 1M27 36.5C27 37.6667 27 40.6 27 43C27 45.4 25 46 24 46C18.3333 46 6.4 46 4 46C1.6 46 1 44 1 43C1 31.1667 1 6.9 1 4.5C1 2.1 3 1.16667 4 1C4.73855 1 5.58354 1 6.5 1M6.5 1L8 4.5H20L21.5 1M6.5 1C11.1912 1 17.755 1 21.5 1" stroke="black" stroke-width="1.5"/>
<path d="M20 24V22L18 20L20 17L22.5 18L25 16.5V13.5H29.5V16.5L32 18L35 16L37 20L34 22V24L37 26L35 30L32 28.5L29.5 30V32.5H25V30L22.5 28.5L20 30L17.5 26L20 24Z" stroke="black" stroke-width="1.5"/>
<circle cx="14" cy="40" r="2.25" stroke="black" stroke-width="1.5"/>
<path d="M30.25 23.5C30.25 25.2949 28.7949 26.75 27 26.75C25.2051 26.75 23.75 25.2949 23.75 23.5C23.75 21.7051 25.2051 20.25 27 20.25C28.7949 20.25 30.25 21.7051 30.25 23.5Z" stroke="black" stroke-width="1.5"/>
</svg>
