<svg width="24" height="24" viewBox="0 0 24 24" fill="none" xmlns="http://www.w3.org/2000/svg">
<path d="M20 0C18.9391 0 17.9217 0.421427 17.1716 1.17157C16.4214 1.92172 16 2.93913 16 4C16.0018 4.28117 16.0332 4.56136 16.0938 4.83594L7.01172 9.37695C6.63714 8.9457 6.17454 8.59968 5.65505 8.36217C5.13555 8.12466 4.57121 8.00117 4 8C2.93913 8 1.92172 8.42143 1.17157 9.17157C0.421427 9.92172 0 10.9391 0 12C0 13.0609 0.421427 14.0783 1.17157 14.8284C1.92172 15.5786 2.93913 16 4 16C4.57139 15.9994 5.13602 15.8763 5.65586 15.6391C6.1757 15.4019 6.6387 15.0561 7.01367 14.625L16.0898 19.1641C16.0306 19.4388 16.0005 19.719 16 20C16 21.0609 16.4214 22.0783 17.1716 22.8284C17.9217 23.5786 18.9391 24 20 24C21.0609 24 22.0783 23.5786 22.8284 22.8284C23.5786 22.0783 24 21.0609 24 20C24 18.9391 23.5786 17.9217 22.8284 17.1716C22.0783 16.4214 21.0609 16 20 16C19.4286 16.0006 18.864 16.1237 18.3441 16.3609C17.8243 16.5981 17.3613 16.9439 16.9863 17.375L7.91016 12.8359C7.96939 12.5612 7.9995 12.281 8 12C7.99808 11.7195 7.96666 11.44 7.90625 11.166L16.9883 6.625C17.363 7.05589 17.8257 7.40155 18.3452 7.63872C18.8647 7.87589 19.4289 7.99908 20 8C21.0609 8 22.0783 7.57857 22.8284 6.82843C23.5786 6.07828 24 5.06087 24 4C24 2.93913 23.5786 1.92172 22.8284 1.17157C22.0783 0.421427 21.0609 0 20 0Z" fill="black" fill-opacity="0.945098"/>
</svg>
