<svg width="24" height="24" viewBox="0 0 24 24" fill="none" xmlns="http://www.w3.org/2000/svg">
<circle cx="12" cy="12" r="11.5" stroke="#09121F"/>
<path d="M13.0201 16H10.9799C8.94779 16 8 15.0522 8 13.0201V10.9799C8 8.94779 8.94779 8 10.9799 8H13.0201C15.0522 8 16 8.94779 16 10.9799V13.0201C16 15.0522 15.0522 16 13.0201 16ZM10.9799 9.20482C9.62249 9.20482 9.20482 9.62249 9.20482 10.9799V13.0201C9.20482 14.3775 9.62249 14.7952 10.9799 14.7952H13.0201C14.3775 14.7952 14.7952 14.3775 14.7952 13.0201V10.9799C14.7952 9.62249 14.3775 9.20482 13.0201 9.20482H10.9799Z" fill="#09121F"/>
<rect x="9" y="9" width="6" height="6" fill="#09121F"/>
</svg>
