<svg width="75" height="68" viewBox="0 0 75 68" fill="none" xmlns="http://www.w3.org/2000/svg">
<path d="M54.0371 18.9604C53.6192 19.8749 52.4174 22.0407 50.9529 23.3879C49.1223 25.0718 47.0031 26.2259 40.2626 26.4623C34.8701 26.6514 31.1442 30.7414 29.9553 32.7627C28.3328 35.2492 24.2694 39.981 20.9961 39.0159C16.9045 37.8097 14.0665 33.8599 15.8025 29.4797C17.5386 25.0996 22.5953 23.0326 26.0153 20.483C29.4353 17.9335 33.0965 14.5657 34.1088 12.6405C35.1211 10.7153 37.193 8.21306 40.7076 8.35977C41.1901 6.7231 43.2619 4.22085 45.7642 6.29271M42.6327 9.37204C42.8251 9.72523 43.364 10.2102 43.9808 9.32476C44.7519 8.21791 46.2467 4.65608 49.5673 6.96922M44.8464 10.9141C45.0388 11.2673 45.7414 11.8006 47.0129 11.1081C48.6022 10.2425 49.0375 7.25774 50.9154 6.92194C51.5872 6.80181 52.4716 7.67723 52.8406 7.93425M47.5899 12.1677C47.8785 12.6975 48.8217 13.4203 50.2862 12.0731C52.1168 10.3892 53.0818 7.11593 55.007 8.12823C56.5471 8.93807 56.9637 10.0393 56.9794 10.4886M50.0922 14.2396C50.1079 14.689 50.515 15.5205 52.0174 15.2519C53.8953 14.9161 53.8007 12.2198 56.7382 11.307C59.6757 10.3941 61.6954 14.1026 60.6831 16.0278C59.6708 17.953 56.6791 19.2946 55.3852 18.9131C54.5669 18.6719 54.2783 18.1421 52.883 16.8413" stroke="black" stroke-width="1.5"/>
<path d="M49.3226 32.4234C48.3441 32.2485 45.9029 32.0044 43.9661 32.4277C41.5451 32.9568 39.3814 34.013 35.2582 39.2884C31.9597 43.5088 26.4999 44.2161 24.1823 44.0422C21.238 43.9567 15.0657 44.5766 13.9309 47.7408C12.5124 51.6961 14.0294 56.1762 18.5613 57.2271C23.0931 58.2779 27.7043 55.3745 31.7481 54.0533C35.7919 52.732 40.6339 51.6738 42.7712 51.9357C44.9084 52.1976 48.1276 51.9314 50.0606 49.0302C51.6569 49.5561 54.8761 49.29 54.6718 46.1269M50.3707 46.9211C50.1992 46.5697 50.1241 45.8669 51.1954 45.866C52.5345 45.8649 56.2681 46.6528 56.3475 42.6986M50.4236 44.285C50.2521 43.9336 50.2337 43.0725 51.532 42.4388C53.1548 41.6467 55.8066 42.9627 57.1721 41.6435C57.6607 41.1716 57.4735 39.9737 57.4823 39.5344M51.0175 41.3848C50.7602 40.8578 50.73 39.6979 52.6667 39.2746C55.0877 38.7455 58.2804 39.7974 58.5906 37.6883C58.8387 36.001 58.1971 35.0525 57.8453 34.7891M50.8131 38.2217C50.4613 37.9583 50.0308 37.1678 51.1233 36.1125C52.4889 34.7934 54.5997 36.3734 57.0471 34.5262C59.4946 32.679 57.6939 28.9899 55.5566 28.728C53.4193 28.4661 50.5958 30.1176 50.1472 31.3684C49.8635 32.1594 50.1208 32.6864 50.3516 34.5315" stroke="black" stroke-width="1.5"/>
</svg>
