<svg width="54" height="39" viewBox="0 0 54 39" fill="none" xmlns="http://www.w3.org/2000/svg">
<path d="M1 27.4999V5.99994C1 2.39994 2.89012 0.999939 4.78024 0.999939H43.0552C46.8354 0.999939 47.4655 4.16661 47.308 5.99994V27.4999C47.308 31.0999 44.4728 31.9999 43.0552 31.9999H4.78024C1.75605 31.9999 1 28.9999 1 27.4999Z" stroke="black" stroke-width="1.5"/>
<path d="M19.4287 22.9999V11.4999C19.4287 8.29994 21.6338 8.83327 22.7364 9.49994C24.469 10.6666 28.5013 13.3999 30.7694 14.9999C33.0375 16.5999 31.7145 18.3333 30.7694 18.9999C29.1943 20.1666 25.3826 22.8999 22.7364 24.4999C20.0902 26.0999 19.4287 24.1666 19.4287 22.9999Z" stroke="black" stroke-width="1.5"/>
<path d="M47.3079 6.99994H48.7255C52.5058 6.99994 53.1358 10.1666 52.9783 11.9999C52.9783 17.6666 52.9783 29.8999 52.9783 33.4999C52.9783 37.0999 50.1431 37.9999 48.7255 37.9999C37.2273 37.9999 13.4748 37.9999 10.4506 37.9999C7.4264 37.9999 6.67035 34.9999 6.67035 33.4999V31.9999" stroke="black" stroke-width="1.5"/>
</svg>
